REM DIRINDEX 1\2,1\4,1\5,1\6,1\7,1\3\8,1\3\9,1\3\10
REM DIRNAME folder01,folder02,folder03,folder04,folder05,folder06,folder07,folder08,folder09,folder10
TITLE ""
FILE "DB4500_5th_5C_12.mp3" MP3
  TRACK 01 AUDIO
    TITLE "0:"
    INDEX 01 00:00:00
  TRACK 02 AUDIO
    TITLE "8:cjc113_3807"
    INDEX 01 00:00:01
  TRACK 03 AUDIO
    TITLE "0:"
    INDEX 01 00:01:17
  TRACK 04 AUDIO
    TITLE "9:cjc113_3808"
    INDEX 01 00:01:32
  TRACK 05 AUDIO
    TITLE "0:"
    INDEX 01 00:02:63
  TRACK 06 AUDIO
    TITLE "10:cjc113_3809"
    INDEX 01 00:03:04
  TRACK 07 AUDIO
    TITLE "0:"
    INDEX 01 00:06:06
  TRACK 08 AUDIO
    TITLE "8:cjc113_3810"
    INDEX 01 00:06:47
  TRACK 09 AUDIO
    TITLE "0:"
    INDEX 01 00:07:60
  TRACK 10 AUDIO
    TITLE "9:cjc113_3811"
    INDEX 01 00:08:03
  TRACK 11 AUDIO
    TITLE "0:"
    INDEX 01 00:09:26
  TRACK 12 AUDIO
    TITLE "10:cjc113_3812"
    INDEX 01 00:09:42
  TRACK 13 AUDIO
    TITLE "0:"
    INDEX 01 00:12:18
  TRACK 14 AUDIO
    TITLE "8:cjc113_3813"
    INDEX 01 00:12:60
  TRACK 15 AUDIO
    TITLE "0:"
    INDEX 01 00:14:06
  TRACK 16 AUDIO
    TITLE "9:cjc113_3814"
    INDEX 01 00:14:19
  TRACK 17 AUDIO
    TITLE "0:"
    INDEX 01 00:15:52
  TRACK 18 AUDIO
    TITLE "10:cjc113_3815"
    INDEX 01 00:15:70
  TRACK 19 AUDIO
    TITLE "0:"
    INDEX 01 00:19:69
  TRACK 20 AUDIO
    TITLE "8:cjc113_3816"
    INDEX 01 00:20:36
  TRACK 21 AUDIO
    TITLE "0:"
    INDEX 01 00:21:47
  TRACK 22 AUDIO
    TITLE "9:cjc113_3817"
    INDEX 01 00:21:64
  TRACK 23 AUDIO
    TITLE "0:"
    INDEX 01 00:23:42
  TRACK 24 AUDIO
    TITLE "10:cjc113_3818"
    INDEX 01 00:23:61
  TRACK 25 AUDIO
    TITLE "0:"
    INDEX 01 00:27:02
  TRACK 26 AUDIO
    TITLE "8:cjc113_3819"
    INDEX 01 00:27:43
  TRACK 27 AUDIO
    TITLE "0:"
    INDEX 01 00:28:60
  TRACK 28 AUDIO
    TITLE "9:cjc113_3820"
    INDEX 01 00:29:01
  TRACK 29 AUDIO
    TITLE "0:"
    INDEX 01 00:30:42
  TRACK 30 AUDIO
    TITLE "10:cjc113_3821"
    INDEX 01 00:30:54
  TRACK 31 AUDIO
    TITLE "0:"
    INDEX 01 00:34:42
  TRACK 32 AUDIO
    TITLE "8:cjc113_3822"
    INDEX 01 00:35:08
  TRACK 33 AUDIO
    TITLE "0:"
    INDEX 01 00:36:19
  TRACK 34 AUDIO
    TITLE "9:cjc113_3823"
    INDEX 01 00:36:35
  TRACK 35 AUDIO
    TITLE "0:"
    INDEX 01 00:38:39
  TRACK 36 AUDIO
    TITLE "10:cjc113_3824"
    INDEX 01 00:38:55
  TRACK 37 AUDIO
    TITLE "0:"
    INDEX 01 00:42:55
  TRACK 38 AUDIO
    TITLE "8:cjc113_3825"
    INDEX 01 00:43:19
  TRACK 39 AUDIO
    TITLE "0:"
    INDEX 01 00:44:28
  TRACK 40 AUDIO
    TITLE "9:cjc113_3826"
    INDEX 01 00:44:42
  TRACK 41 AUDIO
    TITLE "0:"
    INDEX 01 00:46:11
  TRACK 42 AUDIO
    TITLE "10:cjc113_3827"
    INDEX 01 00:46:25
  TRACK 43 AUDIO
    TITLE "0:"
    INDEX 01 00:49:59
  TRACK 44 AUDIO
    TITLE "8:cjc113_3828"
    INDEX 01 00:50:23
  TRACK 45 AUDIO
    TITLE "0:"
    INDEX 01 00:51:38
  TRACK 46 AUDIO
    TITLE "9:cjc113_3829"
    INDEX 01 00:51:56
  TRACK 47 AUDIO
    TITLE "0:"
    INDEX 01 00:52:65
  TRACK 48 AUDIO
    TITLE "10:cjc113_3830"
    INDEX 01 00:53:06
  TRACK 49 AUDIO
    TITLE "0:"
    INDEX 01 00:56:51
  TRACK 50 AUDIO
    TITLE "8:cjc113_3831"
    INDEX 01 00:57:17
  TRACK 51 AUDIO
    TITLE "0:"
    INDEX 01 00:58:22
  TRACK 52 AUDIO
    TITLE "9:cjc113_3832"
    INDEX 01 00:58:40
  TRACK 53 AUDIO
    TITLE "0:"
    INDEX 01 00:59:69
  TRACK 54 AUDIO
    TITLE "10:cjc113_3833"
    INDEX 01 01:00:12
  TRACK 55 AUDIO
    TITLE "0:"
    INDEX 01 01:03:69
  TRACK 56 AUDIO
    TITLE "8:cjc113_3834"
    INDEX 01 01:04:41
  TRACK 57 AUDIO
    TITLE "0:"
    INDEX 01 01:05:64
  TRACK 58 AUDIO
    TITLE "9:cjc113_3835"
    INDEX 01 01:05:73
  TRACK 59 AUDIO
    TITLE "0:"
    INDEX 01 01:07:31
  TRACK 60 AUDIO
    TITLE "10:cjc113_3836"
    INDEX 01 01:07:37
  TRACK 61 AUDIO
    TITLE "0:"
    INDEX 01 01:10:14
  TRACK 62 AUDIO
    TITLE "8:cjc113_3837"
    INDEX 01 01:10:47
  TRACK 63 AUDIO
    TITLE "0:"
    INDEX 01 01:11:52
  TRACK 64 AUDIO
    TITLE "9:cjc113_3838"
    INDEX 01 01:11:60
  TRACK 65 AUDIO
    TITLE "0:"
    INDEX 01 01:13:26
  TRACK 66 AUDIO
    TITLE "10:cjc113_3839"
    INDEX 01 01:13:36
  TRACK 67 AUDIO
    TITLE "0:"
    INDEX 01 01:16:63
  TRACK 68 AUDIO
    TITLE "8:cjc113_3840"
    INDEX 01 01:17:20
  TRACK 69 AUDIO
    TITLE "0:"
    INDEX 01 01:18:31
  TRACK 70 AUDIO
    TITLE "9:cjc113_3841"
    INDEX 01 01:18:39
  TRACK 71 AUDIO
    TITLE "0:"
    INDEX 01 01:19:42
  TRACK 72 AUDIO
    TITLE "10:cjc113_3842"
    INDEX 01 01:19:50
  TRACK 73 AUDIO
    TITLE "0:"
    INDEX 01 01:23:73
  TRACK 74 AUDIO
    TITLE "8:cjc113_3843"
    INDEX 01 01:24:30
  TRACK 75 AUDIO
    TITLE "0:"
    INDEX 01 01:25:43
  TRACK 76 AUDIO
    TITLE "9:cjc113_3844"
    INDEX 01 01:25:51
  TRACK 77 AUDIO
    TITLE "0:"
    INDEX 01 01:26:66
  TRACK 78 AUDIO
    TITLE "10:cjc113_3845"
    INDEX 01 01:26:74
  TRACK 79 AUDIO
    TITLE "0:"
    INDEX 01 01:31:06
